# xmcd
#
# Track frame offsets: 
#        150
#        25317
#        41364
#        59218
#        78018
#        97071
#        114221
#        128407
#        146749
#        162984
#        179321
#        199902
#        219121
#        238293
#        253133
#        270989
#
# Disc length: 3793 seconds
#
# Revision: 11
# Processed by: cddbd v1.5.2PL0 Copyright (c) Steve Scherf et al.
# Submitted via: ExactAudioCopy v1.0b1
#
DISCID=de0ecf10
DTITLE=Faith Hill - Breathe
DYEAR=1999
DGENRE=Country
TTITLE0=What's In It For Me
TTITLE1=I Got My Baby
TTITLE2=Love Is A Sweet Thing
TTITLE3=Breathe
TTITLE4=Let's Make Love (With Tim Mcgraw)
TTITLE5=It Will Be Me
TTITLE6=The Way You Love Me
TTITLE7=If I'm Not In Love
TTITLE8=Bringing Out The Elvis
TTITLE9=If My Heart Had Wings
TTITLE10=If I Should Fall Behind
TTITLE11=That's How Love Come A Day
TTITLE12=There Will Come A Day
TTITLE13=This Kiss (Radio Ver)
TTITLE14=Breathe (Hex Hector Radio Edit #1)
TTITLE15=The Way You Love Me (Love To Infinity Edit)
EXTD=
EXTT0=
EXTT1=
EXTT2=
EXTT3=
EXTT4=
EXTT5=
EXTT6=
EXTT7=
EXTT8=
EXTT9=
EXTT10=
EXTT11=
EXTT12=
EXTT13=
EXTT14=
EXTT15=
PLAYORDER=
